# xmcd
#
# Track frame offsets: 
#        182
#        22132
#        40057
#        54145
#        67945
#        81295
#        92932
#        105307
#        118507
#        135832
#        153982
#        166807
#        182407
#        191557
#
# Disc length: 2725 seconds
#
# Revision: 0
# Processed by: cddbd v1.5.1PL2 Copyright (c) Steve Scherf et al.
# Submitted via: ExactAudioCopy v0.95b3
#
DISCID=a20aa30e
DTITLE=Various Artist - Blues Brothers Soul Sisters 2 CD1
DYEAR=1900
DGENRE=Blues
TTITLE0=Respect Yourself/Staple Singers
TTITLE1=Mannish Boy/Muddy Waters
TTITLE2=Smokestack Lightning/Howlin' Wolf
TTITLE3=Dust My Broom/Elmore James
TTITLE4=When A Man Loves A Woman/Percy Sledge
TTITLE5=Don't Start Me Talkin'/Sonny Boy Williamson
TTITLE6=Got To Move/Elmore James
TTITLE7=Soul Man/Sam and Dave
TTITLE8=Little Red Rooster/Howlin' Wold and Eric Clapton
TTITLE9=Hi Heel Sneakers/Tommy Tucker
TTITLE10=Hootchie Coochie Man/Muddy Waters
TTITLE11=Road Runner/Bo Diddley
TTITLE12=I Love You Baby/Sonny Terry and Brownie McGhee
TTITLE13=Shame, Shame, Shame/Jimmy Reed
EXTD=
EXTT0=
EXTT1=
EXTT2=
EXTT3=
EXTT4=
EXTT5=
EXTT6=
EXTT7=
EXTT8=
EXTT9=
EXTT10=
EXTT11=
EXTT12=
EXTT13=
PLAYORDER=
